<svg width="24" height="24" xmlns="http://www.w3.org/2000/svg"><g fill="none" fill-rule="evenodd"><path fill-opacity=".01" fill="#FFF" d="M0 0h24v24H0z"/><g transform="translate(0 2.4)" fill-rule="nonzero"><path fill="#AECBFA" d="M0 0h24v8.4H0z"/><path fill="#669DF6" d="M21.6 0H24v8.4h-2.4z"/><path fill="#4285F4" d="M24 0h-2.4v8.4z"/><path fill="#669DF6" d="M0 0h2.4v8.4H0z"/><path fill="#FFF" d="M4.8 3.6H12v1.2H4.8z"/><rect fill="#FFF" x="15.6" y="2.4" width="3.6" height="3.6" rx="1.5"/><path fill="#AECBFA" d="M0 10.8h24v8.4H0z"/><path fill="#669DF6" d="M21.6 10.8H24v8.4h-2.4z"/><path fill="#4285F4" d="M24 10.8h-2.4v8.4z"/><path fill="#669DF6" d="M0 10.8h2.4v8.4H0z"/><path fill="#FFF" d="M4.8 14.4H12v1.2H4.8z"/><rect fill="#FFF" x="15.6" y="13.2" width="3.6" height="3.6" rx="1.5"/></g></g></svg>