<svg width="24" height="24" xmlns="http://www.w3.org/2000/svg" xmlns:xlink="http://www.w3.org/1999/xlink"><defs><path id="a" d="M0 0h24v24H0z"/></defs><g fill="none" fill-rule="evenodd"><mask id="b" fill="#fff"><use xlink:href="#a"/></mask><g mask="url(#b)"><path fill="#FABB05" d="M9.5 18.5h5v3h-5z"/><path fill="#E44335" d="M2.5 18.5h5v3h-5z"/><path fill="#4280EE" d="M16.5 18.5h5v3h-5z"/><path d="M8.063 12.5h8.224c1.725 0 3.125-1.4 3.125-3.125a3.117 3.117 0 00-2.903-3.103A4.688 4.688 0 0011.912 2.5a4.691 4.691 0 00-4.156 2.522 3.75 3.75 0 00.406 7.478" stroke="#3C4043"/><path fill="#3C4043" d="M11.5 8.671h1v11.241h-1z"/><path d="M11.871 15.5h4.422c1.805.08 2.707.913 2.707 2.5v1.793" stroke="#3C4043"/><path d="M12 15.5H7.707C5.902 15.58 5 16.413 5 18v1.793" stroke="#3C4043"/></g></g></svg>