<svg width="24" height="24" xmlns="http://www.w3.org/2000/svg"><g fill-rule="nonzero" fill="none"><path fill="#4285F4" d="M.226 8.739l3.016-5.373H7.12v2.37H4.598L2.926 8.7l1.026 1.723-2.015 1.179z"/><path fill="#AECBFA" d="M15.04 13.427l3.168-1.824 3.168 1.824v3.663l-3.168 1.824-3.168-1.824zM2.368 13.427l3.168-1.824 3.168 1.824v3.663l-3.168 1.824-3.168-1.824zM8.704 2.682L11.872.857l3.168 1.825v3.65l-3.168 1.836-3.168-1.837z"/><path fill="#4285F4" d="M18.208 11.603l3.168 1.824v3.663l-3.168 1.824zM5.536 11.603l3.168 1.824v3.663l-3.168 1.824zM11.872.857l3.168 1.825v3.65l-3.168 1.836zM19.792 10.424l1.026-1.71-1.672-2.979h-2.522v-2.37h3.878l3.016 5.374-1.711 2.864zM8.843 23.16l-1.875-3.118 2.027-1.178 1.179 1.926h3.358l1.191-1.926 2.028 1.165-1.888 3.13z"/></g></svg>