<svg width="24" height="24" xmlns="http://www.w3.org/2000/svg"><g fill-rule="nonzero" fill="none"><path fill="#AECBFA" d="M8.182 8.182h7.013v7.013H8.182z"/><path fill="#669DF6" d="M10.52 0h2.338v4.675H10.52zM5.844 0h2.338v4.675H5.844zM15.195 0h2.338v4.675h-2.338z"/><path fill="#4285F4" d="M10.52 18.701h2.338v4.675H10.52zM5.844 18.701h2.338v4.675H5.844zM15.195 18.701h2.338v4.675h-2.338zM18.701 12.857V10.52h4.676v2.337zM18.701 17.533v-2.338h4.676v2.338zM18.701 8.182V5.844h4.676v2.338z"/><path fill="#669DF6" d="M0 12.857V10.52h4.675v2.337zM0 17.533v-2.338h4.675v2.338zM0 8.182V5.844h4.675v2.338z"/><path d="M3.507 3.507V19.87H19.87V3.507H3.507zm14.026 14.026H5.844V5.844h11.689v11.689z" fill="#AECBFA"/><path fill="#669DF6" d="M8.182 15.195h7.013l-3.507-3.507z"/><path fill="#4285F4" d="M11.688 11.688l3.507 3.507V8.182z"/></g></svg>