<svg width="24" height="24" xmlns="http://www.w3.org/2000/svg" xmlns:xlink="http://www.w3.org/1999/xlink"><defs><path id="a" d="M0 0h24v24H0z"/></defs><g fill="none" fill-rule="evenodd"><use fill="#FFF" xlink:href="#a"/><path fill="#4280EE" style="mix-blend-mode:multiply" d="M0 8.357l11.52 6.786 11.479-6.786-11.48-6.785z"/><path fill="#3C4043" d="M23 20v1h-3v-1zM22 9v11h-1V9zM19 11v6h-1v-6zM5 11v6H4v-6z"/><path fill="#3C4043" d="M12.093 6.468L4.545 11.37 4 10.532l7.548-4.902zM19.093 16.839l-7.548 4.901-.545-.838L18.548 16z"/><path fill="#3C4043" d="M4 16.839l7.548 4.901.545-.838L4.545 16zM11 6.468l7.548 4.902.545-.838-7.548-4.902z"/></g></svg>