<svg width="24" height="24" xmlns="http://www.w3.org/2000/svg"><path d="M17.601 8.959l4.417 2.416a.448.448 0 01.003.784l-6.466 3.606 6.934 3.688c.146.078.238.23.238.396v3.455a.448.448 0 01-.663.393L11.599 17.97 1.333 23.695a.448.448 0 01-.666-.391v-3.452c0-.164.089-.314.232-.393l14.039-7.695-1.306-.694 3.97-2.111zM22.67.229a.448.448 0 01.057.219V3.9c0 .163-.09.314-.233.393L8.455 11.987l1.306.695-3.969 2.111-4.417-2.416a.448.448 0 01-.003-.784l6.466-3.606L.904 4.298a.448.448 0 01-.237-.395V.448a.448.448 0 01.662-.393l10.465 5.726L22.061.057a.448.448 0 01.609.173z" fill="#4285F4" fill-rule="nonzero"/></svg>