<svg xmlns="http://www.w3.org/2000/svg" viewBox="0 0 24 24"><path d="M11.8 18.3c1.2 0 2.2.9 2.2 2.1 0 1.2-1 2.1-2.2 2.1s-2.2-.9-2.2-2.1c0-1.2 1-2.1 2.2-2.1zm3.1-2.7l1.1 1.8h1.3c.3-.8 1.1-1.4 2.1-1.4 1.2 0 2.2.9 2.2 2.1 0 1.2-1 2.1-2.2 2.1-.9 0-1.8-.6-2.1-1.4h-1.4c-.4 0-.8-.2-1.1-.6l-1.2-2h-3.5l-1.2 2c-.2.4-.6.6-1.1.6H6.4c-.3.8-1.1 1.4-2.1 1.4-1.2 0-2.2-.9-2.2-2.1 0-1.2 1-2.1 2.2-2.1 1 0 1.8.6 2.1 1.4h1.3l1.1-1.9-1.7-2.9H4.3c-.3.8-1 1.3-1.9 1.4h-.2C1 14 0 13.1 0 11.9s1-2.1 2.2-2.1c1 0 1.8.6 2.1 1.4H7l1.8-2.9-1.1-1.7H6.4c-.3.8-1.1 1.4-2 1.4-1.2 0-2.2-1-2.2-2.2s1-2.1 2.2-2.1c1 0 1.8.6 2.1 1.4h1.4c.4 0 .8.2 1.1.6l1.2 1.9h3.5l1.2-1.9c.2-.4.6-.6 1.1-.6h1.4c.3-.8 1.1-1.4 2.1-1.4 1.2 0 2.2.9 2.2 2.1S20.5 8 19.3 8c-1 0-1.8-.6-2.1-1.4h-1.3l-1.1 1.8 1.7 2.8h3.1c.3-.8 1-1.3 1.9-1.4h.2c1.2 0 2.2.9 2.2 2.1S23 14 21.8 14c-1 0-1.8-.6-2.1-1.4h-3l-1.8 3zM11.8 1.5c1.2 0 2.2.9 2.2 2.1s-1 2.1-2.2 2.1-2.2-.9-2.2-2.1 1-2.1 2.2-2.1z" fill="#4285f4"/></svg>