<svg width="24" height="24" xmlns="http://www.w3.org/2000/svg"><path d="M23.76 4.667v14.121h-4.707a.224.224 0 01-.224-.224v-1.345c0-.124.1-.224.224-.224h2.914V6.46h-2.914a.224.224 0 01-.224-.224V4.89c0-.124.1-.224.224-.224h4.707zm-18.64 0c.123 0 .223.1.223.224v1.345c0 .124-.1.224-.224.224H1.793v10.535H5.1c.124 0 .225.1.225.224v1.345c0 .124-.1.224-.225.224H0V4.667h5.12zm13.207 4.595v1.73l.073.029 1.604-.567.332.974-1.618.552-.044.116 1.113 1.498-.838.61-1.084-1.497h-.101l-1.084 1.497-.838-.61 1.098-1.498-.029-.116-1.618-.552.332-.974 1.59.567.086-.03v-1.73h1.026zm-12.154 0v1.713l.072.028 1.604-.561.333.964-1.619.547-.043.115 1.112 1.483-.838.604-1.084-1.482h-.1l-1.085 1.482-.838-.604 1.099-1.483-.03-.115-1.618-.547.332-.964 1.59.561.087-.028V9.262h1.026zm6.052 0v1.713l.072.028 1.604-.561.333.964-1.619.547-.043.115 1.112 1.483-.838.604-1.084-1.482h-.1l-1.085 1.482-.838-.604 1.099-1.483-.03-.115-1.618-.547.333-.964 1.59.561.086-.028V9.262h1.026z" fill="#4285F4" fill-rule="nonzero"/></svg>