<svg width="24" height="24" xmlns="http://www.w3.org/2000/svg">
  <g fill="none" fill-rule="evenodd">
    <path fill-opacity=".01" fill="#FFF" d="M0 0h24v24H0z"/>
    <path d="M4.965 13.15a4.891 4.891 0 014.894 4.89c0 2.7-2.191 4.889-4.894 4.889a4.891 4.891 0 01-4.894-4.89c0-2.7 2.191-4.888 4.894-4.888zm-.04 2.133l-.744.748 1.576 1.582H2.206v1.06h3.553l-1.578 1.584.745.747 2.85-2.86-2.85-2.86zM22.93.071v14.313h-4.937v4.931h-7.174a5.992 5.992 0 00.095-2.09H15.9v-4.932h4.936V2.162h-10.14v4.932H5.758v4.981a6.045 6.045 0 00-2.092.095V5.003h4.936V.07H22.93zM18.797 4.2v6.057h-4.936v4.932l-3.601-.001a6.007 6.007 0 00-2.462-2.459V9.131l4.936-.001V4.199h6.063z" fill="#4285F4"/>
  </g>
</svg>
